<svg width="90" height="90" viewBox="0 0 90 90" fill="none" xmlns="http://www.w3.org/2000/svg">
<mask id="path-1-inside-1_398_1915" fill="white">
<path d="M44.6721 1.95268e-06C69.3438 3.03111e-06 89.3441 20.0004 89.3441 44.6721V44.6721C89.3441 69.3438 69.3438 89.3441 44.6721 89.3441V89.3441C20.0004 89.3441 8.74245e-07 69.3438 1.95268e-06 44.6721V44.6721C3.03111e-06 20.0004 20.0004 8.74243e-07 44.6721 1.95268e-06V1.95268e-06Z"/>
</mask>
<path d="M44.6721 1.95268e-06C69.3438 3.03111e-06 89.3441 20.0004 89.3441 44.6721V44.6721C89.3441 69.3438 69.3438 89.3441 44.6721 89.3441V89.3441C20.0004 89.3441 8.74245e-07 69.3438 1.95268e-06 44.6721V44.6721C3.03111e-06 20.0004 20.0004 8.74243e-07 44.6721 1.95268e-06V1.95268e-06Z" fill="url(#paint0_linear_398_1915)"/>
<path d="M44.6721 1.95268e-06M44.6721 89.3441M44.6721 89.3441M44.6721 1.95268e-06M89.3441 44.6721M44.6721 89.3441M1.95268e-06 44.6721M44.6721 1.95268e-06M1.95268e-06 44.6721L0.893442 44.6721C0.893443 20.4938 20.4938 0.893442 44.6721 0.893443L44.6721 1.95268e-06L44.6721 -0.89344C19.5069 -0.893441 -0.893437 19.5069 -0.893438 44.6721L1.95268e-06 44.6721ZM44.6721 89.3441L44.6721 88.4507C20.4938 88.4507 0.893441 68.8503 0.893442 44.6721L1.95268e-06 44.6721L-0.893438 44.6721C-0.893439 69.8372 19.5069 90.2376 44.6721 90.2376L44.6721 89.3441ZM89.3441 44.6721L88.4507 44.6721C88.4507 68.8503 68.8503 88.4507 44.6721 88.4507L44.6721 89.3441L44.6721 90.2376C69.8372 90.2376 90.2376 69.8372 90.2376 44.6721L89.3441 44.6721ZM89.3441 44.6721L90.2376 44.6721C90.2376 19.5069 69.8372 -0.893438 44.6721 -0.89344L44.6721 1.95268e-06L44.6721 0.893443C68.8503 0.893445 88.4507 20.4938 88.4507 44.6721L89.3441 44.6721Z" fill="#387128" mask="url(#path-1-inside-1_398_1915)"/>
<path d="M44.6725 10.0508C63.7931 10.0508 79.2934 25.5511 79.2934 44.6716V44.6716C79.2934 63.7922 63.7931 79.2925 44.6725 79.2925V79.2925C25.5519 79.2925 10.0516 63.7922 10.0516 44.6716V44.6716C10.0516 25.5511 25.5519 10.0508 44.6725 10.0508V10.0508Z" fill="url(#paint1_linear_398_1915)"/>
<path d="M60.1979 62.8945C59.8993 62.8945 59.6006 62.8305 59.3019 62.7025C59.0459 62.5319 58.8326 62.2332 58.6619 61.8065L46.6299 26.7985C46.4593 26.2012 46.3099 25.7959 46.1819 25.5825C46.0539 25.3692 45.8619 25.2625 45.6059 25.2625C45.2646 25.2625 44.9233 25.7745 44.5819 26.7985L32.4219 61.8065C32.1659 62.5319 31.6753 62.8945 30.9499 62.8945C30.2673 62.8945 29.7553 62.7452 29.4139 62.4465C29.1153 62.1479 28.9659 61.7852 28.9659 61.3585C28.9659 61.1879 29.0086 60.9745 29.0939 60.7185L43.5579 20.9105C43.6433 20.6545 43.7499 20.5265 43.8779 20.5265C44.0059 20.5265 44.3046 20.5265 44.7739 20.5265C45.2859 20.5265 45.7979 20.5265 46.3099 20.5265C46.8219 20.5265 47.1206 20.5265 47.2059 20.5265C47.3339 20.5265 47.4406 20.6332 47.5259 20.8465L61.9259 60.4625C62.0113 60.7185 62.0539 60.9532 62.0539 61.1665C62.0539 61.7212 61.8406 62.1479 61.4139 62.4465C60.9873 62.7452 60.5819 62.8945 60.1979 62.8945ZM31.2059 46.9585C30.7793 46.9585 30.3953 46.8092 30.0539 46.5105C29.7553 46.1692 29.6059 45.7852 29.6059 45.3585C29.6059 44.8892 29.7553 44.5052 30.0539 44.2065C30.3953 43.9079 30.7793 43.7585 31.2059 43.7585H59.9419C60.4113 43.7585 60.7953 43.9079 61.0939 44.2065C61.3926 44.5052 61.542 44.8892 61.542 45.3585C61.542 45.7852 61.3926 46.1692 61.0939 46.5105C60.7953 46.8092 60.4113 46.9585 59.9419 46.9585H31.2059ZM26.9819 58.0945C26.9819 57.6252 27.1313 57.2625 27.4299 57.0065C27.7286 56.7079 28.1339 56.5585 28.6459 56.5585H31.7819C32.2939 56.5585 32.6993 56.6865 32.9979 56.9425C33.2966 57.2412 33.4459 57.6252 33.4459 58.0945C33.4459 58.6065 33.2966 59.0119 32.9979 59.3105C32.6993 59.5665 32.2939 59.6945 31.7819 59.6945H28.6459C28.1339 59.6945 27.7286 59.5452 27.4299 59.2465C27.1313 58.9905 26.9819 58.6065 26.9819 58.0945ZM36.8379 58.0945C36.8379 58.6065 36.6886 58.9905 36.3899 59.2465C36.0913 59.5452 35.6859 59.6945 35.1739 59.6945H32.0379C31.5686 59.6945 31.1633 59.5665 30.8219 59.3105C30.5233 59.0119 30.3739 58.6065 30.3739 58.0945C30.3739 57.6252 30.5233 57.2412 30.8219 56.9425C31.1633 56.6865 31.5686 56.5585 32.0379 56.5585H35.1739C35.6859 56.5585 36.0913 56.7079 36.3899 57.0065C36.6886 57.2625 36.8379 57.6252 36.8379 58.0945ZM54.3739 58.0945C54.3739 57.6252 54.5233 57.2625 54.8219 57.0065C55.1206 56.7079 55.5259 56.5585 56.0379 56.5585H59.174C59.6859 56.5585 60.0913 56.6865 60.3899 56.9425C60.6886 57.2412 60.8379 57.6252 60.8379 58.0945C60.8379 58.6065 60.6886 59.0119 60.3899 59.3105C60.0913 59.5665 59.6859 59.6945 59.174 59.6945H56.0379C55.5259 59.6945 55.1206 59.5452 54.8219 59.2465C54.5233 58.9905 54.3739 58.6065 54.3739 58.0945ZM64.23 58.0945C64.23 58.6065 64.0806 58.9905 63.7819 59.2465C63.4833 59.5452 63.0779 59.6945 62.5659 59.6945H59.43C58.9606 59.6945 58.5553 59.5665 58.2139 59.3105C57.9153 59.0119 57.7659 58.6065 57.7659 58.0945C57.7659 57.6252 57.9153 57.2412 58.2139 56.9425C58.5553 56.6865 58.9606 56.5585 59.43 56.5585H62.5659C63.0779 56.5585 63.4833 56.7079 63.7819 57.0065C64.0806 57.2625 64.23 57.6252 64.23 58.0945ZM40.6779 19.6945C40.6779 19.1825 40.8273 18.7985 41.1259 18.5425C41.4246 18.2439 41.8299 18.0945 42.3419 18.0945H45.4779C45.9899 18.0945 46.3953 18.2225 46.6939 18.4785C46.9926 18.7772 47.1419 19.1825 47.1419 19.6945C47.1419 20.1639 46.9926 20.5479 46.6939 20.8465C46.3953 21.1025 45.9899 21.2305 45.4779 21.2305H42.3419C41.8299 21.2305 41.4246 21.0812 41.1259 20.7825C40.8273 20.5265 40.6779 20.1639 40.6779 19.6945ZM50.5339 19.6945C50.5339 20.1639 50.3846 20.5265 50.0859 20.7825C49.7873 21.0812 49.3819 21.2305 48.8699 21.2305H45.7339C45.2646 21.2305 44.8593 21.1025 44.5179 20.8465C44.2193 20.5479 44.0699 20.1639 44.0699 19.6945C44.0699 19.1825 44.2193 18.7772 44.5179 18.4785C44.8593 18.2225 45.2646 18.0945 45.7339 18.0945H48.8699C49.3819 18.0945 49.7873 18.2439 50.0859 18.5425C50.3846 18.7985 50.5339 19.1825 50.5339 19.6945ZM53.2859 25.9665C53.2859 26.6919 52.9233 27.0545 52.1979 27.0545H39.1419C38.4166 27.0545 38.0539 26.6919 38.0539 25.9665C38.0539 25.1985 38.3953 24.8145 39.0779 24.8145H52.1339C52.9019 24.8145 53.2859 25.1985 53.2859 25.9665ZM53.0939 29.4225C52.4113 29.4225 52.0699 29.0599 52.0699 28.3345V26.1585C52.0699 25.7745 52.1553 25.4972 52.3259 25.3265C52.4966 25.1559 52.7739 25.0705 53.1579 25.0705C53.5846 25.0705 53.8833 25.1559 54.0539 25.3265C54.1819 25.4545 54.2459 25.7105 54.2459 26.0945V28.2705C54.2459 29.0385 53.8619 29.4225 53.0939 29.4225ZM53.0939 22.5105C53.8619 22.5105 54.2459 22.8945 54.2459 23.6625V25.8385C54.2459 26.2225 54.1819 26.4785 54.0539 26.6065C53.8833 26.7772 53.5846 26.8625 53.1579 26.8625C52.7739 26.8625 52.4966 26.7772 52.3259 26.6065C52.1553 26.4359 52.0699 26.1585 52.0699 25.7745V23.5985C52.0699 22.8732 52.4113 22.5105 53.0939 22.5105ZM39.2699 28.3345C39.2699 29.0599 38.9286 29.4225 38.2459 29.4225C37.4779 29.4225 37.0939 29.0385 37.0939 28.2705V26.0945C37.0939 25.7105 37.1579 25.4545 37.2859 25.3265C37.4566 25.1559 37.7553 25.0705 38.1819 25.0705C38.5659 25.0705 38.8433 25.1559 39.0139 25.3265C39.1846 25.4972 39.2699 25.7745 39.2699 26.1585V28.3345ZM37.0939 23.5985C37.0939 22.8305 37.4779 22.4465 38.2459 22.4465C38.9286 22.4465 39.2699 22.8092 39.2699 23.5345V25.7105C39.2699 26.0945 39.1846 26.3719 39.0139 26.5425C38.8433 26.7132 38.5659 26.7985 38.1819 26.7985C37.7553 26.7985 37.4566 26.7132 37.2859 26.5425C37.1579 26.4145 37.0939 26.1585 37.0939 25.7745V23.5985ZM45.4779 52.7185C44.9233 52.2919 44.8379 51.8012 45.2219 51.2465L49.4459 45.2305C49.8299 44.6332 50.3633 44.5692 51.0459 45.0385C51.6006 45.4652 51.6859 45.9559 51.3019 46.5105L47.0779 52.5265C46.9073 52.7399 46.6726 52.8892 46.3739 52.9745C46.1179 53.0172 45.8193 52.9319 45.4779 52.7185ZM39.2059 52.7185C38.6513 52.2919 38.5659 51.8012 38.9499 51.2465L43.1739 45.2305C43.5579 44.6332 44.0913 44.5692 44.7739 45.0385C45.3286 45.4652 45.4139 45.9559 45.0299 46.5105L40.8059 52.5265C40.6353 52.7399 40.4006 52.8892 40.1019 52.9745C39.8459 53.0172 39.5473 52.9319 39.2059 52.7185ZM58.1499 45.8705C58.1499 46.5959 57.7873 46.9585 57.0619 46.9585H35.8139C35.0886 46.9585 34.7259 46.5959 34.7259 45.8705C34.7259 45.1025 35.0673 44.7185 35.7499 44.7185H56.9979C57.7659 44.7185 58.1499 45.1025 58.1499 45.8705ZM58.1499 52.0145C58.1499 52.7399 57.7873 53.1025 57.0619 53.1025H35.8139C35.0886 53.1025 34.7259 52.7399 34.7259 52.0145C34.7259 51.2465 35.0673 50.8625 35.7499 50.8625H56.9979C57.7659 50.8625 58.1499 51.2465 58.1499 52.0145Z" fill="white"/>
<defs>
<linearGradient id="paint0_linear_398_1915" x1="89.3441" y1="3.90536e-06" x2="0" y2="89.3441" gradientUnits="userSpaceOnUse">
<stop stop-color="#8AF300" stop-opacity="0.2"/>
<stop offset="1" stop-color="#10FAFA" stop-opacity="0.2"/>
</linearGradient>
<linearGradient id="paint1_linear_398_1915" x1="79.2934" y1="10.0508" x2="10.0516" y2="79.2925" gradientUnits="userSpaceOnUse">
<stop stop-color="#53EAFD" stop-opacity="0.3"/>
<stop offset="1" stop-color="#AD46FF" stop-opacity="0.3"/>
</linearGradient>
</defs>
</svg>
